# xmcd CD database file
#
# Track frame offsets:
#	150
#	24726
#	45762
#	61526
#	92949
#	103421
#	138516
#	161237
#	174540
#	190664
#	212293
#	236755
#	269820
#	298087
#	318329
#
# Disc length: 4569 seconds
#
# Revision: 1
# Processed by: cddbd v1.5.2PL0 Copyright (c) Steve Scherf et al.
# Submitted via: CDex 1.97
#
DISCID=da11d70f
DTITLE=Other - TAKE FIVE
DYEAR=2020
DGENRE=Jazz
TTITLE0=01. CHILL
TTITLE1=02. ACCOUSTIC ALCHEMY
TTITLE2=03. AL JARREAU
TTITLE3=04. AZIZA MUSTAFA ZADEH
TTITLE4=05. CARMEN McCRAE and DAVE BRUBECK
TTITLE5=06. GEORGE BENSON
TTITLE6=07. GROVER WASINGTON. JR,
TTITLE7=08. CHARLIE PARKER
TTITLE8=09. HERBIE HANCOCK - QUINCY JONES
TTITLE9=10. MOCK KOFFMAN
TTITLE10=11. JOE SAMPLE
TTITLE11=12. STRING CHEESE INCIDENT
TTITLE12=13. TITO PUENTE
TTITLE13=14. TOOTS THIELEMANS
TTITLE14=15. DAVE BRUBECK QUARTET
EXTD=YEAR: 2020
EXTT0=
EXTT1=
EXTT2=
EXTT3=
EXTT4=
EXTT5=
EXTT6=
EXTT7=
EXTT8=
EXTT9=
EXTT10=
EXTT11=
EXTT12=
EXTT13=
EXTT14=
PLAYORDER=
